<?xml version="1.0" encoding="UTF-8" standalone="no"?>
<!-- Created with Inkscape (http://www.inkscape.org/) -->

<svg
   width="210mm"
   height="297mm"
   viewBox="0 0 210 297"
   version="1.1"
   id="svg5"
   inkscape:version="1.1.1 (3bf5ae0d25, 2021-09-20)"
   sodipodi:docname="images-sources.svg"
   xmlns:inkscape="http://www.inkscape.org/namespaces/inkscape"
   xmlns:sodipodi="http://sodipodi.sourceforge.net/DTD/sodipodi-0.dtd"
   xmlns:xlink="http://www.w3.org/1999/xlink"
   xmlns="http://www.w3.org/2000/svg"
   xmlns:svg="http://www.w3.org/2000/svg">
  <sodipodi:namedview
     id="namedview7"
     pagecolor="#ffffff"
     bordercolor="#666666"
     borderopacity="1.0"
     inkscape:pageshadow="2"
     inkscape:pageopacity="0.0"
     inkscape:pagecheckerboard="0"
     inkscape:document-units="mm"
     showgrid="false"
     inkscape:zoom="1.3255892"
     inkscape:cx="311.93676"
     inkscape:cy="218.01626"
     inkscape:window-width="1920"
     inkscape:window-height="1009"
     inkscape:window-x="-8"
     inkscape:window-y="-8"
     inkscape:window-maximized="1"
     inkscape:current-layer="layer1" />
  <defs
     id="defs2">
    <linearGradient
       inkscape:collect="always"
       id="linearGradient4122">
      <stop
         style="stop-color:#000000;stop-opacity:0.51005024"
         offset="0"
         id="stop4118" />
      <stop
         style="stop-color:#eee8b3;stop-opacity:0.98492461"
         offset="1"
         id="stop4120" />
    </linearGradient>
    <linearGradient
       inkscape:collect="always"
       xlink:href="#linearGradient4122"
       id="linearGradient10565"
       gradientUnits="userSpaceOnUse"
       x1="53.578678"
       y1="59.639938"
       x2="55.271988"
       y2="75.258385"
       gradientTransform="translate(16.647552,-63.072583)" />
    <linearGradient
       inkscape:collect="always"
       xlink:href="#linearGradient4122"
       id="linearGradient10487"
       gradientUnits="userSpaceOnUse"
       gradientTransform="rotate(2.8256233,617.30653,-630.92505)"
       x1="53.578678"
       y1="59.639938"
       x2="55.271988"
       y2="75.258385" />
    <linearGradient
       inkscape:collect="always"
       xlink:href="#linearGradient4122"
       id="linearGradient12586"
       gradientUnits="userSpaceOnUse"
       gradientTransform="rotate(1.7884215,1355.6303,-918.09575)"
       x1="53.728497"
       y1="62.176952"
       x2="55.271988"
       y2="75.258385" />
    <linearGradient
       inkscape:collect="always"
       xlink:href="#linearGradient4122"
       id="linearGradient14478"
       gradientUnits="userSpaceOnUse"
       x1="53.578678"
       y1="59.639938"
       x2="55.271988"
       y2="75.258385"
       gradientTransform="rotate(2.87375,1109.9604,-631.95563)" />
    <linearGradient
       inkscape:collect="always"
       xlink:href="#linearGradient4122"
       id="linearGradient14005"
       gradientUnits="userSpaceOnUse"
       gradientTransform="matrix(-0.99874243,0.05013537,0.05013537,0.99874243,124.0725,-56.443007)"
       x1="53.578678"
       y1="59.639938"
       x2="55.271988"
       y2="75.258385" />
    <linearGradient
       inkscape:collect="always"
       xlink:href="#linearGradient4122"
       id="linearGradient14007"
       gradientUnits="userSpaceOnUse"
       gradientTransform="matrix(-0.99951289,0.03120878,0.03120878,0.99951289,121.77732,-42.754778)"
       x1="53.728497"
       y1="62.176952"
       x2="55.271988"
       y2="75.258385" />
    <linearGradient
       inkscape:collect="always"
       xlink:href="#linearGradient4122"
       id="linearGradient14009"
       gradientUnits="userSpaceOnUse"
       gradientTransform="matrix(-0.99878419,0.04929644,0.04929644,0.99878419,124.13686,-31.198101)"
       x1="53.578678"
       y1="59.639938"
       x2="55.271988"
       y2="75.258385" />
    <linearGradient
       inkscape:collect="always"
       xlink:href="#linearGradient4122"
       id="linearGradient14011"
       gradientUnits="userSpaceOnUse"
       gradientTransform="translate(16.647552,-63.072583)"
       x1="53.578678"
       y1="59.639938"
       x2="55.271988"
       y2="75.258385" />
  </defs>
  <g
     inkscape:label="Calque 1"
     inkscape:groupmode="layer"
     id="layer1"
     style="display:inline">
    <rect
       style="display:inline;fill:none;fill-opacity:0.984925;stroke:#000000;stroke-width:0.2;stroke-linejoin:round;stroke-miterlimit:4;stroke-dasharray:none"
       id="rect10549"
       width="46.786663"
       height="12.561125"
       x="0.10585015"
       y="0.070568033"
       rx="0.49999899"
       ry="0.49999899" />
    <g
       id="g1859"
       transform="rotate(2.8256233,110.91218,-1018.8007)"
       style="display:inline">
      <path
         style="fill:#5a361c;fill-opacity:0.51005;stroke:#000000;stroke-width:0.264583px;stroke-linecap:butt;stroke-linejoin:miter;stroke-opacity:1"
         d="m 56.591856,11.352065 c 4.21996,-0.273246 9.648954,-0.780893 11.187314,-1.328481 1.99523,-0.408838 5.608914,-0.5066747 8.37606,-1.1591787 2.35118,-0.37598 2.32416,-0.00601 8.2779,-0.456375 1.08956,0.08399 6.002864,-0.496597 7.154064,-0.28098 -1.08177,0.49663 -6.428485,0.7976428 -7.127005,0.8292038 -3.92817,0.634168 -6.822729,0.8653899 -8.811289,0.7697449 -4.08456,0.381035 -6.48374,0.64338 -9.95869,1.024374 -0.49375,0.0023 -4.883467,0.494738 -9.098354,0.601697 z"
         id="path10551"
         sodipodi:nodetypes="cccccccccc" />
      <path
         style="fill:url(#linearGradient10565);fill-opacity:1;stroke:#000000;stroke-width:0.264583px;stroke-linecap:butt;stroke-linejoin:miter;stroke-opacity:1"
         d="m 56.067914,11.327115 c -0.730957,-0.935149 -0.810424,-2.072813 2.039844,-1.57329 2.599067,-2.06489 5.189632,-3.3539127 7.679587,-1.7328147 2.1305,-2.086 8.36093,-4.203115 10.21111,-2.829822 1.9591,-1.942932 8.78416,-1.7691846 10.41627,-0.9481796 3.82086,-1.538925 6.079454,1.2069699 5.495804,3.8555929 2.34494,4.6544724 -3.522878,6.1834864 -5.821958,4.0526364 -0.54344,1.625231 -7.198506,2.670355 -9.953716,0.635509 -0.72592,2.13695 -9.299355,1.140474 -11.052735,0.156001 -1.21578,1.580532 -5.372712,0.593663 -6.963177,-0.05818 -1.901701,1.501933 -2.729048,-0.510611 -2.051029,-1.557451 z"
         id="path10539"
         sodipodi:nodetypes="cccccccccccc" />
      <ellipse
         style="fill:#ffffff;fill-opacity:0.984925;stroke:#000000;stroke-width:0.402413;stroke-linejoin:round;stroke-miterlimit:4;stroke-dasharray:none"
         id="ellipse10541"
         cx="54.647156"
         cy="-31.851482"
         rx="0.72267342"
         ry="1.004295"
         transform="matrix(0.75374771,0.6571639,-0.52283571,0.85243347,0,0)" />
      <ellipse
         style="fill:#000000;fill-opacity:0.984925;stroke:#000000;stroke-width:0.5;stroke-linejoin:round;stroke-miterlimit:4;stroke-dasharray:none"
         id="ellipse10543"
         cx="57.830769"
         cy="9.2099504"
         rx="0.39919356"
         ry="0.44909272" />
      <ellipse
         style="fill:#ffffff;fill-opacity:0.984925;stroke:#000000;stroke-width:0.402413;stroke-linejoin:round;stroke-miterlimit:4;stroke-dasharray:none"
         id="ellipse10545"
         cx="56.27253"
         cy="-32.435516"
         rx="0.72267342"
         ry="1.004295"
         transform="matrix(0.75374771,0.6571639,-0.52283571,0.85243347,0,0)" />
      <ellipse
         style="fill:#000000;fill-opacity:0.984925;stroke:#000000;stroke-width:0.5;stroke-linejoin:round;stroke-miterlimit:4;stroke-dasharray:none"
         id="ellipse10547"
         cx="59.186611"
         cy="9.6804476"
         rx="0.39919356"
         ry="0.44909272" />
    </g>
    <rect
       style="display:inline;fill:none;fill-opacity:0.984925;stroke:#000000;stroke-width:0.2;stroke-linejoin:round;stroke-miterlimit:4;stroke-dasharray:none"
       id="rect10549-0"
       width="46.786999"
       height="12.561125"
       x="0.10585015"
       y="37.753944"
       rx="0.49999899"
       ry="0.49999899" />
    <ellipse
       style="display:inline;fill:#ffffff;fill-opacity:0.984925;stroke:#000000;stroke-width:0.402413;stroke-linejoin:round;stroke-miterlimit:4;stroke-dasharray:none"
       id="ellipse10541-1"
       cx="30.337866"
       cy="26.148424"
       rx="0.72267342"
       ry="1.004295"
       transform="matrix(0.72043545,0.69352199,-0.56422198,0.82562313,0,0)" />
    <path
       style="display:inline;fill:#5a361c;fill-opacity:0.51005;stroke:#000000;stroke-width:0.264583px;stroke-linecap:butt;stroke-linejoin:miter;stroke-opacity:1"
       d="m 5.875035,45.105175 c 4.2283,-0.06489 9.675718,-0.304284 11.239202,-0.775371 2.019234,-0.376815 5.209924,-1.007258 7.964327,-1.080058 2.366856,-0.259618 2.780323,0.443769 8.749026,0.28745 1.084095,0.137599 6.020046,-0.200074 7.159217,0.07203 -1.104936,0.442699 -6.45999,0.479771 -7.159216,0.476859 -3.954657,0.439753 -6.574823,0.457434 -8.73267,0.616717 -4.098378,0.179217 -6.613425,0.0407 -10.102932,0.249928 -0.493263,-0.02204 -4.901919,0.253399 -9.116954,0.152449 z"
       id="path10551-1"
       sodipodi:nodetypes="cccccccccc" />
    <ellipse
       style="display:inline;fill:#000000;fill-opacity:0.984925;stroke:#000000;stroke-width:0.5;stroke-linejoin:round;stroke-miterlimit:4;stroke-dasharray:none"
       id="ellipse10543-0"
       cx="9.1832733"
       cy="42.675819"
       rx="0.39919356"
       ry="0.44909272"
       transform="rotate(2.8256233)" />
    <path
       style="display:inline;fill:url(#linearGradient10487);fill-opacity:1;stroke:#000000;stroke-width:0.264583px;stroke-linecap:butt;stroke-linejoin:miter;stroke-opacity:1"
       d="m 5.35296,45.054427 c -0.683968,-0.970045 -0.707256,-2.63941 2.114922,-1.999987 2.697699,-1.934254 4.65007,-5.089972 7.057083,-3.348099 2.230742,-1.978438 9.35635,-0.362521 11.136582,1.10031 2.052498,-1.843993 8.860695,-0.236224 10.450348,0.66424 3.892078,-1.348699 5.912765,-0.490769 5.199257,2.125862 1.364152,3.117737 -3.12483,4.205931 -5.316071,1.964336 -0.622898,1.596465 -7.870285,3.260332 -10.521834,1.092139 -0.830382,2.098566 -9.693565,2.197362 -11.396282,1.12765 C 12.784748,49.299555 8.881117,46.911383 7.324719,46.181929 5.35129,47.588288 4.62416,46.06657 5.35296,45.054429 Z"
       id="path10539-6"
       sodipodi:nodetypes="cccccccccccc" />
    <ellipse
       style="display:inline;fill:#ffffff;fill-opacity:0.984925;stroke:#000000;stroke-width:0.402413;stroke-linejoin:round;stroke-miterlimit:4;stroke-dasharray:none"
       id="ellipse10545-1"
       cx="31.75617"
       cy="25.002947"
       rx="0.72267342"
       ry="1.004295"
       transform="matrix(0.72043545,0.69352199,-0.56422198,0.82562313,0,0)" />
    <ellipse
       style="display:inline;fill:#000000;fill-opacity:0.984925;stroke:#000000;stroke-width:0.5;stroke-linejoin:round;stroke-miterlimit:4;stroke-dasharray:none"
       id="ellipse10547-3"
       cx="10.676582"
       cy="42.531654"
       rx="0.39919356"
       ry="0.44909272"
       transform="rotate(2.8256233)" />
    <rect
       style="display:inline;fill:none;fill-opacity:0.984925;stroke:#000000;stroke-width:0.2;stroke-linejoin:round;stroke-miterlimit:4;stroke-dasharray:none"
       id="rect12584"
       width="46.786663"
       height="12.561125"
       x="0.10585015"
       y="25.192818"
       rx="0.49999899"
       ry="0.49999899" />
    <path
       style="display:inline;fill:#5a361c;fill-opacity:0.51005;stroke:#000000;stroke-width:0.264583px;stroke-linecap:butt;stroke-linejoin:miter;stroke-opacity:1"
       d="m 6.5061837,31.840529 c 4.2264323,-0.141413 11.1855583,0.510776 12.7402583,0.01147 2.11287,-0.522791 3.191445,-0.820142 4.728286,-1.09733 2.538189,0.05042 6.533985,0.754904 12.49888,0.490571 1.086408,0.117953 4.896787,-0.0026 6.040697,0.248877 -1.096742,0.462627 -2.713842,0.219185 -3.413007,0.228931 -3.946048,0.511266 -12.888359,0.02307 -14.802397,0.571092 -4.094462,0.253376 -3.677936,-0.05326 -7.163083,0.2191 -0.493592,-0.01311 -6.226414,-0.242847 -10.6296343,-0.67271 z"
       id="path12572"
       sodipodi:nodetypes="cccccccccc" />
    <ellipse
       style="display:inline;fill:#ffffff;fill-opacity:0.984925;stroke:#000000;stroke-width:0.402413;stroke-linejoin:round;stroke-miterlimit:4;stroke-dasharray:none"
       id="ellipse12576"
       cx="23.354801"
       cy="16.523167"
       rx="0.72267342"
       ry="1.004295"
       transform="matrix(0.73287127,0.68036733,-0.54918443,0.83570118,0,0)" />
    <ellipse
       style="display:inline;fill:#000000;fill-opacity:0.984925;stroke:#000000;stroke-width:0.5;stroke-linejoin:round;stroke-miterlimit:4;stroke-dasharray:none"
       id="ellipse12578"
       cx="8.7936134"
       cy="29.524055"
       rx="0.39919356"
       ry="0.44909272"
       transform="rotate(1.7884215)" />
    <path
       style="display:inline;fill:url(#linearGradient12586);fill-opacity:1;stroke:#000000;stroke-width:0.264583px;stroke-linecap:butt;stroke-linejoin:miter;stroke-opacity:1"
       d="M 6.5061837,31.840525 C 5.8047647,30.88302 5.7608487,29.74343 8.594131,30.331663 c 2.662247,-1.982771 8.073519,-4.191641 10.511673,-2.493624 3.288379,-3.288719 8.676148,-1.937959 10.482568,-0.507593 3.606566,-0.998743 6.078339,0.39352 7.684032,1.265062 3.867027,-1.418931 5.907927,0.269486 5.241901,2.898604 0.681322,2.820049 -3.124627,4.790177 -5.356086,2.588613 -0.593897,1.607479 -5.150259,1.852373 -7.840622,-0.267466 -3.861969,1.689844 -8.64979,2.438634 -10.512736,0.3414 -2.909819,0.993384 -8.72791,0.0057 -10.297252,-0.695425 -1.9476473,1.441852 -2.7117853,-0.595533 -2.0014253,-1.620703 z"
       id="path12574"
       sodipodi:nodetypes="cccccccccccc" />
    <ellipse
       style="display:inline;fill:#ffffff;fill-opacity:0.984925;stroke:#000000;stroke-width:0.402413;stroke-linejoin:round;stroke-miterlimit:4;stroke-dasharray:none"
       id="ellipse12949"
       cx="24.748039"
       cy="15.716106"
       rx="0.72267342"
       ry="1.004295"
       transform="matrix(0.73287127,0.68036733,-0.54918443,0.83570118,0,0)" />
    <ellipse
       style="display:inline;fill:#000000;fill-opacity:0.984925;stroke:#000000;stroke-width:0.5;stroke-linejoin:round;stroke-miterlimit:4;stroke-dasharray:none"
       id="ellipse12951"
       cx="10.265721"
       cy="29.751678"
       rx="0.39919356"
       ry="0.44909272"
       transform="rotate(1.7884215)" />
    <ellipse
       style="display:inline;fill:#ffffff;fill-opacity:0.984925;stroke:#000000;stroke-width:0.402413;stroke-linejoin:round;stroke-miterlimit:4;stroke-dasharray:none"
       id="ellipse4775"
       cx="15.490762"
       cy="7.5589299"
       rx="0.72267342"
       ry="1.004295"
       transform="matrix(0.71985266,0.69412689,-0.56491528,0.82514891,0,0)" />
    <ellipse
       style="display:inline;fill:#000000;fill-opacity:0.984925;stroke:#000000;stroke-width:0.5;stroke-linejoin:round;stroke-miterlimit:4;stroke-dasharray:none"
       id="path4603"
       cx="7.7115641"
       cy="17.072538"
       rx="0.39919356"
       ry="0.44909272"
       transform="rotate(2.87375)" />
    <rect
       style="display:inline;fill:none;fill-opacity:0.984925;stroke:#000000;stroke-width:0.2;stroke-linejoin:round;stroke-miterlimit:4;stroke-dasharray:none"
       id="rect5123"
       width="46.786663"
       height="12.561125"
       x="0.10585015"
       y="12.631693"
       rx="0.49999899"
       ry="0.49999899" />
    <ellipse
       style="display:inline;fill:#ffffff;fill-opacity:0.984925;stroke:#000000;stroke-width:0.402413;stroke-linejoin:round;stroke-miterlimit:4;stroke-dasharray:none"
       id="ellipse10527"
       cx="15.490762"
       cy="7.5589299"
       rx="0.72267342"
       ry="1.004295"
       transform="matrix(0.71985266,0.69412689,-0.56491528,0.82514891,0,0)" />
    <ellipse
       style="display:inline;fill:#000000;fill-opacity:0.984925;stroke:#000000;stroke-width:0.5;stroke-linejoin:round;stroke-miterlimit:4;stroke-dasharray:none"
       id="ellipse10529"
       cx="7.7115641"
       cy="17.072538"
       rx="0.39919356"
       ry="0.44909272"
       transform="rotate(2.87375)" />
    <path
       style="display:inline;fill:#5a361c;fill-opacity:0.51005;stroke:#000000;stroke-width:0.264583px;stroke-linecap:butt;stroke-linejoin:miter;stroke-opacity:1"
       d="m 4.8240855,19.310318 c 4.210711,0.573779 10.1449855,0.231269 12.2910575,-0.185577 2.013217,-0.308292 4.84219,-0.590782 7.37108,-0.989492 2.614062,-0.142957 3.541722,1.062347 9.510554,0.911044 1.083975,0.13851 6.564902,-0.245541 7.703847,0.02752 -1.105312,0.441771 -5.618031,0.221988 -6.317256,0.218489 -3.955025,0.43643 -8.10146,-0.187773 -10.082728,-0.382995 -4.098527,0.175775 -6.818591,0.630281 -10.308277,0.836577 -0.493248,-0.02246 -6.1121055,0.603952 -10.1682775,-0.435566 z"
       id="path6767"
       sodipodi:nodetypes="ccccccccc" />
    <path
       style="display:inline;fill:url(#linearGradient14478);fill-opacity:1;stroke:#000000;stroke-width:0.264583px;stroke-linecap:butt;stroke-linejoin:miter;stroke-opacity:1"
       d="m 4.8240855,19.310318 c -0.683153,-0.970621 -0.705483,-2.110838 2.116157,-1.469044 2.699322,-1.931988 6.2728115,-3.014765 8.6783685,-1.270871 0.291915,-0.258461 0.666567,-0.494507 1.101303,-0.706306 2.889879,-1.407924 7.658462,-1.321122 11.886428,-0.824525 2.054045,-1.842268 6.899604,-1.530743 8.488496,-0.628945 3.893206,-1.345429 5.684915,2.021239 4.969204,4.637269 2.108641,4.766185 -4.119507,4.972055 -6.097157,3.681289 -1.894467,1.348953 -3.35853,1.07147 -6.361097,-0.499121 -3.61958,1.815596 -14.71872,0.43859 -16.42054,-0.632551 -1.293494,1.517591 -4.8350115,0.10189 -6.3907955,-0.628874 -1.97461,1.404702 -2.700017,-0.646791 -1.970367,-1.658321 z"
       id="path10525"
       sodipodi:nodetypes="cccscccccccc" />
    <ellipse
       style="display:inline;fill:#ffffff;fill-opacity:0.984925;stroke:#000000;stroke-width:0.402413;stroke-linejoin:round;stroke-miterlimit:4;stroke-dasharray:none"
       id="ellipse12941"
       cx="16.844301"
       cy="6.6448064"
       rx="0.72267342"
       ry="1.004295"
       transform="matrix(0.71985266,0.69412689,-0.56491528,0.82514891,0,0)" />
    <ellipse
       style="display:inline;fill:#000000;fill-opacity:0.984925;stroke:#000000;stroke-width:0.5;stroke-linejoin:round;stroke-miterlimit:4;stroke-dasharray:none"
       id="ellipse12943"
       cx="9.2097292"
       cy="17.182808"
       rx="0.39919356"
       ry="0.44909272"
       transform="rotate(2.87375)" />
    <ellipse
       style="display:inline;fill:#ffffff;fill-opacity:0.984925;stroke:#000000;stroke-width:0.402413;stroke-linejoin:round;stroke-miterlimit:4;stroke-dasharray:none"
       id="ellipse12945"
       cx="16.844301"
       cy="6.6448064"
       rx="0.72267342"
       ry="1.004295"
       transform="matrix(0.71985266,0.69412689,-0.56491528,0.82514891,0,0)" />
    <ellipse
       style="display:inline;fill:#000000;fill-opacity:0.984925;stroke:#000000;stroke-width:0.5;stroke-linejoin:round;stroke-miterlimit:4;stroke-dasharray:none"
       id="ellipse12947"
       cx="9.2097292"
       cy="17.182808"
       rx="0.39919356"
       ry="0.44909272"
       transform="rotate(2.87375)" />
    <rect
       style="display:inline;fill:none;fill-opacity:0.984925;stroke:#000000;stroke-width:0.2;stroke-linejoin:round;stroke-miterlimit:4;stroke-dasharray:none"
       id="rect13939"
       width="46.786663"
       height="12.561125"
       x="-93.679176"
       y="0.070566893"
       rx="0.49999899"
       ry="0.49999899"
       transform="scale(-1,1)" />
    <g
       id="g13953"
       transform="matrix(-0.99878419,0.04929644,0.04929644,0.99878419,143.87342,-6.7062438)"
       style="display:inline">
      <path
         style="fill:#5a361c;fill-opacity:0.51005;stroke:#000000;stroke-width:0.264583px;stroke-linecap:butt;stroke-linejoin:miter;stroke-opacity:1"
         d="m 56.591856,11.352065 c 4.21996,-0.273246 9.648954,-0.780893 11.187314,-1.328481 1.99523,-0.408838 5.608914,-0.5066747 8.37606,-1.1591787 2.35118,-0.37598 2.32416,-0.00601 8.2779,-0.456375 1.08956,0.08399 6.002864,-0.496597 7.154064,-0.28098 -1.08177,0.49663 -6.428485,0.7976428 -7.127005,0.8292038 -3.92817,0.634168 -6.822729,0.8653899 -8.811289,0.7697449 -4.08456,0.381035 -6.48374,0.64338 -9.95869,1.024374 -0.49375,0.0023 -4.883467,0.494738 -9.098354,0.601697 z"
         id="path13941"
         sodipodi:nodetypes="cccccccccc" />
      <path
         style="fill:url(#linearGradient14011);fill-opacity:1;stroke:#000000;stroke-width:0.264583px;stroke-linecap:butt;stroke-linejoin:miter;stroke-opacity:1"
         d="m 56.067914,11.327115 c -0.730957,-0.935149 -0.810424,-2.072813 2.039844,-1.57329 2.599067,-2.06489 5.189632,-3.3539127 7.679587,-1.7328147 2.1305,-2.086 8.36093,-4.203115 10.21111,-2.829822 1.9591,-1.942932 8.78416,-1.7691846 10.41627,-0.9481796 3.82086,-1.538925 6.079454,1.2069699 5.495804,3.8555929 2.34494,4.6544724 -3.522878,6.1834864 -5.821958,4.0526364 -0.54344,1.625231 -7.198506,2.670355 -9.953716,0.635509 -0.72592,2.13695 -9.299355,1.140474 -11.052735,0.156001 -1.21578,1.580532 -5.372712,0.593663 -6.963177,-0.05818 -1.901701,1.501933 -2.729048,-0.510611 -2.051029,-1.557451 z"
         id="path13943"
         sodipodi:nodetypes="cccccccccccc" />
      <ellipse
         style="fill:#ffffff;fill-opacity:0.984925;stroke:#000000;stroke-width:0.402413;stroke-linejoin:round;stroke-miterlimit:4;stroke-dasharray:none"
         id="ellipse13945"
         cx="54.647156"
         cy="-31.851482"
         rx="0.72267342"
         ry="1.004295"
         transform="matrix(0.75374771,0.6571639,-0.52283571,0.85243347,0,0)" />
      <ellipse
         style="fill:#000000;fill-opacity:0.984925;stroke:#000000;stroke-width:0.5;stroke-linejoin:round;stroke-miterlimit:4;stroke-dasharray:none"
         id="ellipse13947"
         cx="57.830769"
         cy="9.2099504"
         rx="0.39919356"
         ry="0.44909272" />
      <ellipse
         style="fill:#ffffff;fill-opacity:0.984925;stroke:#000000;stroke-width:0.402413;stroke-linejoin:round;stroke-miterlimit:4;stroke-dasharray:none"
         id="ellipse13949"
         cx="56.27253"
         cy="-32.435516"
         rx="0.72267342"
         ry="1.004295"
         transform="matrix(0.75374771,0.6571639,-0.52283571,0.85243347,0,0)" />
      <ellipse
         style="fill:#000000;fill-opacity:0.984925;stroke:#000000;stroke-width:0.5;stroke-linejoin:round;stroke-miterlimit:4;stroke-dasharray:none"
         id="ellipse13951"
         cx="59.186611"
         cy="9.6804476"
         rx="0.39919356"
         ry="0.44909272" />
    </g>
    <rect
       style="display:inline;fill:none;fill-opacity:0.984925;stroke:#000000;stroke-width:0.2;stroke-linejoin:round;stroke-miterlimit:4;stroke-dasharray:none"
       id="rect13955"
       width="46.786999"
       height="12.561125"
       x="-93.679176"
       y="37.753944"
       rx="0.49999899"
       ry="0.49999899"
       transform="scale(-1,1)" />
    <ellipse
       style="display:inline;fill:#ffffff;fill-opacity:0.984925;stroke:#000000;stroke-width:0.402413;stroke-linejoin:round;stroke-miterlimit:4;stroke-dasharray:none"
       id="ellipse13957"
       cx="-48.18401"
       cy="92.106659"
       rx="0.72267342"
       ry="1.004295"
       transform="matrix(-0.72043545,0.69352199,0.56422198,0.82562313,0,0)" />
    <path
       style="display:inline;fill:#5a361c;fill-opacity:0.51005;stroke:#000000;stroke-width:0.264583px;stroke-linecap:butt;stroke-linejoin:miter;stroke-opacity:1"
       d="m 87.909991,45.105173 c -4.2283,-0.06489 -9.675718,-0.304284 -11.239202,-0.775371 -2.019234,-0.376815 -5.209924,-1.007258 -7.964327,-1.080058 -2.366856,-0.259618 -2.780323,0.443769 -8.749026,0.28745 -1.084095,0.137599 -6.020046,-0.200074 -7.159217,0.07203 1.104936,0.442699 6.45999,0.479771 7.159216,0.476859 3.954657,0.439753 6.574823,0.457434 8.73267,0.616717 4.098378,0.179217 6.613425,0.0407 10.102932,0.249928 0.493263,-0.02204 4.901919,0.253399 9.116954,0.152449 z"
       id="path13959"
       sodipodi:nodetypes="cccccccccc" />
    <ellipse
       style="display:inline;fill:#000000;fill-opacity:0.984925;stroke:#000000;stroke-width:0.5;stroke-linejoin:round;stroke-miterlimit:4;stroke-dasharray:none"
       id="ellipse13961"
       cx="-84.487732"
       cy="47.299088"
       rx="0.39919356"
       ry="0.44909272"
       transform="matrix(-0.99878419,0.04929644,0.04929644,0.99878419,0,0)" />
    <path
       style="display:inline;fill:url(#linearGradient14009);fill-opacity:1;stroke:#000000;stroke-width:0.264583px;stroke-linecap:butt;stroke-linejoin:miter;stroke-opacity:1"
       d="m 88.432066,45.054425 c 0.683968,-0.970045 0.707256,-2.63941 -2.114922,-1.999987 -2.697699,-1.934254 -4.65007,-5.089972 -7.057083,-3.348099 -2.230742,-1.978438 -9.35635,-0.362521 -11.136582,1.10031 -2.052498,-1.843993 -8.860695,-0.236224 -10.450348,0.66424 -3.892078,-1.348699 -5.912765,-0.490769 -5.199257,2.125862 -1.364152,3.117737 3.12483,4.205931 5.316071,1.964336 0.622898,1.596465 7.870285,3.260332 10.521834,1.092139 0.830382,2.098566 9.693565,2.197362 11.396282,1.12765 1.292217,1.518677 5.195848,-0.869495 6.752246,-1.598949 1.973429,1.406359 2.700559,-0.115359 1.971759,-1.1275 z"
       id="path13963"
       sodipodi:nodetypes="cccccccccccc" />
    <ellipse
       style="display:inline;fill:#ffffff;fill-opacity:0.984925;stroke:#000000;stroke-width:0.402413;stroke-linejoin:round;stroke-miterlimit:4;stroke-dasharray:none"
       id="ellipse13965"
       cx="-46.765705"
       cy="90.961182"
       rx="0.72267342"
       ry="1.004295"
       transform="matrix(-0.72043545,0.69352199,0.56422198,0.82562313,0,0)" />
    <ellipse
       style="display:inline;fill:#000000;fill-opacity:0.984925;stroke:#000000;stroke-width:0.5;stroke-linejoin:round;stroke-miterlimit:4;stroke-dasharray:none"
       id="ellipse13967"
       cx="-82.994423"
       cy="47.154922"
       rx="0.39919356"
       ry="0.44909272"
       transform="matrix(-0.99878419,0.04929644,0.04929644,0.99878419,0,0)" />
    <rect
       style="display:inline;fill:none;fill-opacity:0.984925;stroke:#000000;stroke-width:0.2;stroke-linejoin:round;stroke-miterlimit:4;stroke-dasharray:none"
       id="rect13969"
       width="46.786663"
       height="12.561125"
       x="-93.679176"
       y="25.192816"
       rx="0.49999899"
       ry="0.49999899"
       transform="scale(-1,1)" />
    <path
       style="display:inline;fill:#5a361c;fill-opacity:0.51005;stroke:#000000;stroke-width:0.264583px;stroke-linecap:butt;stroke-linejoin:miter;stroke-opacity:1"
       d="m 87.278842,31.840527 c -4.226432,-0.141413 -11.185558,0.510776 -12.740258,0.01147 -2.11287,-0.522791 -3.191445,-0.820142 -4.728286,-1.09733 -2.538189,0.05042 -6.533985,0.754904 -12.49888,0.490571 -1.086408,0.117953 -4.896787,-0.0026 -6.040697,0.248877 1.096742,0.462627 2.713842,0.219185 3.413007,0.228931 3.946048,0.511266 12.888359,0.02307 14.802397,0.571092 4.094462,0.253376 3.677936,-0.05326 7.163083,0.2191 0.493592,-0.01311 6.226414,-0.242847 10.629634,-0.672711 z"
       id="path13971"
       sodipodi:nodetypes="cccccccccc" />
    <ellipse
       style="display:inline;fill:#ffffff;fill-opacity:0.984925;stroke:#000000;stroke-width:0.402413;stroke-linejoin:round;stroke-miterlimit:4;stroke-dasharray:none"
       id="ellipse13973"
       cx="-56.125553"
       cy="81.230309"
       rx="0.72267342"
       ry="1.004295"
       transform="matrix(-0.73287127,0.68036733,0.54918443,0.83570118,0,0)" />
    <ellipse
       style="display:inline;fill:#000000;fill-opacity:0.984925;stroke:#000000;stroke-width:0.5;stroke-linejoin:round;stroke-miterlimit:4;stroke-dasharray:none"
       id="ellipse13975"
       cx="-84.945724"
       cy="32.45097"
       rx="0.39919356"
       ry="0.44909272"
       transform="matrix(-0.99951289,0.03120878,0.03120878,0.99951289,0,0)" />
    <path
       style="display:inline;fill:url(#linearGradient14007);fill-opacity:1;stroke:#000000;stroke-width:0.264583px;stroke-linecap:butt;stroke-linejoin:miter;stroke-opacity:1"
       d="m 87.278842,31.840523 c 0.701419,-0.957505 0.745335,-2.097095 -2.087947,-1.508862 -2.662247,-1.982771 -8.073519,-4.191641 -10.511673,-2.493624 -3.288379,-3.288719 -8.676148,-1.937959 -10.482568,-0.507593 -3.606566,-0.998743 -6.078339,0.39352 -7.684032,1.265062 -3.867027,-1.418931 -5.907927,0.269486 -5.241901,2.898604 -0.681322,2.820049 3.124627,4.790177 5.356086,2.588613 0.593897,1.607479 5.150259,1.852373 7.840622,-0.267466 3.861969,1.689844 8.64979,2.438634 10.512736,0.3414 2.909819,0.993384 8.72791,0.0057 10.297252,-0.695425 1.947647,1.441852 2.711785,-0.595533 2.001425,-1.620703 z"
       id="path13977"
       sodipodi:nodetypes="cccccccccccc" />
    <ellipse
       style="display:inline;fill:#ffffff;fill-opacity:0.984925;stroke:#000000;stroke-width:0.402413;stroke-linejoin:round;stroke-miterlimit:4;stroke-dasharray:none"
       id="ellipse13979"
       cx="-54.732319"
       cy="80.423248"
       rx="0.72267342"
       ry="1.004295"
       transform="matrix(-0.73287127,0.68036733,0.54918443,0.83570118,0,0)" />
    <ellipse
       style="display:inline;fill:#000000;fill-opacity:0.984925;stroke:#000000;stroke-width:0.5;stroke-linejoin:round;stroke-miterlimit:4;stroke-dasharray:none"
       id="ellipse13981"
       cx="-83.473618"
       cy="32.678593"
       rx="0.39919356"
       ry="0.44909272"
       transform="matrix(-0.99951289,0.03120878,0.03120878,0.99951289,0,0)" />
    <ellipse
       style="display:inline;fill:#ffffff;fill-opacity:0.984925;stroke:#000000;stroke-width:0.402413;stroke-linejoin:round;stroke-miterlimit:4;stroke-dasharray:none"
       id="ellipse13983"
       cx="-62.986008"
       cy="73.574692"
       rx="0.72267342"
       ry="1.004295"
       transform="matrix(-0.71985266,0.69412689,0.56491528,0.82514891,0,0)" />
    <ellipse
       style="display:inline;fill:#000000;fill-opacity:0.984925;stroke:#000000;stroke-width:0.5;stroke-linejoin:round;stroke-miterlimit:4;stroke-dasharray:none"
       id="ellipse13985"
       cx="-85.955521"
       cy="21.774485"
       rx="0.39919356"
       ry="0.44909272"
       transform="matrix(-0.99874243,0.05013537,0.05013537,0.99874243,0,0)" />
    <rect
       style="display:inline;fill:none;fill-opacity:0.984925;stroke:#000000;stroke-width:0.2;stroke-linejoin:round;stroke-miterlimit:4;stroke-dasharray:none"
       id="rect13987"
       width="46.786663"
       height="12.561125"
       x="-93.679176"
       y="12.631693"
       rx="0.49999899"
       ry="0.49999899"
       transform="scale(-1,1)" />
    <ellipse
       style="display:inline;fill:#ffffff;fill-opacity:0.984925;stroke:#000000;stroke-width:0.402413;stroke-linejoin:round;stroke-miterlimit:4;stroke-dasharray:none"
       id="ellipse13989"
       cx="-62.986008"
       cy="73.574692"
       rx="0.72267342"
       ry="1.004295"
       transform="matrix(-0.71985266,0.69412689,0.56491528,0.82514891,0,0)" />
    <ellipse
       style="display:inline;fill:#000000;fill-opacity:0.984925;stroke:#000000;stroke-width:0.5;stroke-linejoin:round;stroke-miterlimit:4;stroke-dasharray:none"
       id="ellipse13991"
       cx="-85.955521"
       cy="21.774485"
       rx="0.39919356"
       ry="0.44909272"
       transform="matrix(-0.99874243,0.05013537,0.05013537,0.99874243,0,0)" />
    <path
       style="display:inline;fill:#5a361c;fill-opacity:0.51005;stroke:#000000;stroke-width:0.264583px;stroke-linecap:butt;stroke-linejoin:miter;stroke-opacity:1"
       d="m 88.96094,19.310316 c -4.210711,0.573779 -10.144985,0.231269 -12.291057,-0.185577 -2.013217,-0.308292 -4.84219,-0.590782 -7.37108,-0.989492 -2.614062,-0.142957 -3.541722,1.062347 -9.510554,0.911044 -1.083975,0.13851 -6.564902,-0.245541 -7.703847,0.02752 1.105312,0.441771 5.618031,0.221988 6.317256,0.218489 3.955025,0.43643 8.10146,-0.187773 10.082728,-0.382995 4.098527,0.175775 6.818591,0.630281 10.308277,0.836577 0.493248,-0.02246 6.112105,0.603952 10.168277,-0.435566 z"
       id="path13993"
       sodipodi:nodetypes="ccccccccc" />
    <path
       style="display:inline;fill:url(#linearGradient14005);fill-opacity:1;stroke:#000000;stroke-width:0.264583px;stroke-linecap:butt;stroke-linejoin:miter;stroke-opacity:1"
       d="M 88.96094,19.310316 C 89.644093,18.339695 89.666423,17.199478 86.844783,17.841272 84.145461,15.909284 80.571972,14.826507 78.166415,16.570401 77.8745,16.31194 77.499848,16.075894 77.065112,15.864095 74.175233,14.456171 69.40665,14.542973 65.178684,15.03957 63.124639,13.197302 58.27908,13.508827 56.690188,14.410625 c -3.893206,-1.345429 -5.684915,2.021239 -4.969204,4.637269 -2.108641,4.766185 4.119507,4.972055 6.097157,3.681289 1.894467,1.348953 3.35853,1.07147 6.361097,-0.499121 3.61958,1.815596 14.71872,0.43859 16.42054,-0.632551 1.293494,1.517591 4.835011,0.10189 6.390795,-0.628874 1.97461,1.404702 2.700017,-0.646791 1.970367,-1.658321 z"
       id="path13995"
       sodipodi:nodetypes="cccscccccccc" />
    <ellipse
       style="display:inline;fill:#ffffff;fill-opacity:0.984925;stroke:#000000;stroke-width:0.402413;stroke-linejoin:round;stroke-miterlimit:4;stroke-dasharray:none"
       id="ellipse13997"
       cx="-61.632469"
       cy="72.660568"
       rx="0.72267342"
       ry="1.004295"
       transform="matrix(-0.71985266,0.69412689,0.56491528,0.82514891,0,0)" />
    <ellipse
       style="display:inline;fill:#000000;fill-opacity:0.984925;stroke:#000000;stroke-width:0.5;stroke-linejoin:round;stroke-miterlimit:4;stroke-dasharray:none"
       id="ellipse13999"
       cx="-84.457359"
       cy="21.884754"
       rx="0.39919356"
       ry="0.44909272"
       transform="matrix(-0.99874243,0.05013537,0.05013537,0.99874243,0,0)" />
    <ellipse
       style="display:inline;fill:#ffffff;fill-opacity:0.984925;stroke:#000000;stroke-width:0.402413;stroke-linejoin:round;stroke-miterlimit:4;stroke-dasharray:none"
       id="ellipse14001"
       cx="-61.632469"
       cy="72.660568"
       rx="0.72267342"
       ry="1.004295"
       transform="matrix(-0.71985266,0.69412689,0.56491528,0.82514891,0,0)" />
    <ellipse
       style="display:inline;fill:#000000;fill-opacity:0.984925;stroke:#000000;stroke-width:0.5;stroke-linejoin:round;stroke-miterlimit:4;stroke-dasharray:none"
       id="ellipse14003"
       cx="-84.457359"
       cy="21.884754"
       rx="0.39919356"
       ry="0.44909272"
       transform="matrix(-0.99874243,0.05013537,0.05013537,0.99874243,0,0)" />
  </g>
</svg>
