<?xml version="1.0" encoding="UTF-8" standalone="no"?>
<!-- Created with Inkscape (http://www.inkscape.org/) -->

<svg
   width="210mm"
   height="297mm"
   viewBox="0 0 210 297"
   version="1.1"
   id="svg5"
   inkscape:version="1.1.1 (3bf5ae0d25, 2021-09-20)"
   sodipodi:docname="images-sources.svg"
   xmlns:inkscape="http://www.inkscape.org/namespaces/inkscape"
   xmlns:sodipodi="http://sodipodi.sourceforge.net/DTD/sodipodi-0.dtd"
   xmlns:xlink="http://www.w3.org/1999/xlink"
   xmlns="http://www.w3.org/2000/svg"
   xmlns:svg="http://www.w3.org/2000/svg">
  <sodipodi:namedview
     id="namedview7"
     pagecolor="#ffffff"
     bordercolor="#666666"
     borderopacity="1.0"
     inkscape:pageshadow="2"
     inkscape:pageopacity="0.0"
     inkscape:pagecheckerboard="0"
     inkscape:document-units="mm"
     showgrid="false"
     inkscape:zoom="1.8746662"
     inkscape:cx="218.43889"
     inkscape:cy="169.6302"
     inkscape:window-width="1920"
     inkscape:window-height="1009"
     inkscape:window-x="-8"
     inkscape:window-y="-8"
     inkscape:window-maximized="1"
     inkscape:current-layer="layer1" />
  <defs
     id="defs2">
    <linearGradient
       inkscape:collect="always"
       id="linearGradient3220">
      <stop
         style="stop-color:#3c5334;stop-opacity:1"
         offset="0"
         id="stop3216" />
      <stop
         style="stop-color:#38ce01;stop-opacity:0"
         offset="1"
         id="stop3218" />
    </linearGradient>
    <linearGradient
       inkscape:collect="always"
       id="linearGradient21568">
      <stop
         style="stop-color:#ff4520;stop-opacity:1"
         offset="0"
         id="stop1681" />
      <stop
         style="stop-color:#f51e00;stop-opacity:0"
         offset="1"
         id="stop1683" />
    </linearGradient>
    <linearGradient
       inkscape:collect="always"
       id="linearGradient21568-3">
      <stop
         style="stop-color:#8b5c32;stop-opacity:1;"
         offset="0"
         id="stop21564" />
      <stop
         style="stop-color:#8b5c32;stop-opacity:0;"
         offset="1"
         id="stop21566" />
    </linearGradient>
    <linearGradient
       inkscape:collect="always"
       id="linearGradient4122">
      <stop
         style="stop-color:#000000;stop-opacity:0.51005024"
         offset="0"
         id="stop4118" />
      <stop
         style="stop-color:#eee8b3;stop-opacity:0.98492461"
         offset="1"
         id="stop4120" />
    </linearGradient>
    <linearGradient
       inkscape:collect="always"
       xlink:href="#linearGradient4122"
       id="linearGradient10565"
       gradientUnits="userSpaceOnUse"
       x1="53.578678"
       y1="59.639938"
       x2="55.271988"
       y2="75.258385"
       gradientTransform="translate(16.647552,-63.072583)" />
    <linearGradient
       inkscape:collect="always"
       xlink:href="#linearGradient4122"
       id="linearGradient10487"
       gradientUnits="userSpaceOnUse"
       gradientTransform="rotate(2.8256233,617.30653,-630.92505)"
       x1="53.578678"
       y1="59.639938"
       x2="55.271988"
       y2="75.258385" />
    <linearGradient
       inkscape:collect="always"
       xlink:href="#linearGradient4122"
       id="linearGradient12586"
       gradientUnits="userSpaceOnUse"
       gradientTransform="rotate(1.7884215,1355.6303,-918.09575)"
       x1="53.728497"
       y1="62.176952"
       x2="55.271988"
       y2="75.258385" />
    <linearGradient
       inkscape:collect="always"
       xlink:href="#linearGradient4122"
       id="linearGradient14478"
       gradientUnits="userSpaceOnUse"
       x1="53.578678"
       y1="59.639938"
       x2="55.271988"
       y2="75.258385"
       gradientTransform="rotate(2.87375,1109.9604,-631.95563)" />
    <linearGradient
       inkscape:collect="always"
       xlink:href="#linearGradient21568-3"
       id="linearGradient21570"
       x1="416.13187"
       y1="526.25085"
       x2="410.76068"
       y2="657.51324"
       gradientUnits="userSpaceOnUse"
       gradientTransform="matrix(0.26458333,0,0,0.26458333,-13.572581,-55.887098)" />
    <linearGradient
       inkscape:collect="always"
       xlink:href="#linearGradient4122"
       id="linearGradient28295"
       gradientUnits="userSpaceOnUse"
       gradientTransform="matrix(-0.99874243,0.05013537,0.05013537,0.99874243,124.07284,-56.443004)"
       x1="53.578678"
       y1="59.639938"
       x2="55.271988"
       y2="75.258385" />
    <linearGradient
       inkscape:collect="always"
       xlink:href="#linearGradient4122"
       id="linearGradient28297"
       gradientUnits="userSpaceOnUse"
       gradientTransform="matrix(-0.99951289,0.03120878,0.03120878,0.99951289,121.77766,-42.754776)"
       x1="53.728497"
       y1="62.176952"
       x2="55.271988"
       y2="75.258385" />
    <linearGradient
       inkscape:collect="always"
       xlink:href="#linearGradient4122"
       id="linearGradient28299"
       gradientUnits="userSpaceOnUse"
       gradientTransform="matrix(-0.99878419,0.04929644,0.04929644,0.99878419,124.1372,-31.1981)"
       x1="53.578678"
       y1="59.639938"
       x2="55.271988"
       y2="75.258385" />
    <linearGradient
       inkscape:collect="always"
       xlink:href="#linearGradient4122"
       id="linearGradient28301"
       gradientUnits="userSpaceOnUse"
       gradientTransform="translate(16.647552,-63.072583)"
       x1="53.578678"
       y1="59.639938"
       x2="55.271988"
       y2="75.258385" />
    <radialGradient
       inkscape:collect="always"
       xlink:href="#linearGradient21568"
       id="radialGradient2125"
       cx="138.38408"
       cy="16.277136"
       fx="138.38408"
       fy="16.277136"
       r="3.1322364"
       gradientTransform="matrix(1.1330884,0.96012425,-0.80423081,0.94911114,-44.421493,-142.45759)"
       gradientUnits="userSpaceOnUse" />
    <radialGradient
       inkscape:collect="always"
       xlink:href="#linearGradient3220"
       id="radialGradient3224"
       cx="99.036789"
       cy="19.247854"
       fx="99.036789"
       fy="19.247854"
       r="3.3724239"
       gradientTransform="matrix(1.9832841,-0.03270771,0.02200222,1.33414,-97.928298,-8.4834943)"
       gradientUnits="userSpaceOnUse" />
  </defs>
  <g
     inkscape:label="Calque 1"
     inkscape:groupmode="layer"
     id="layer1"
     style="display:inline">
    <rect
       style="display:inline;fill:none;fill-opacity:0.984925;stroke:#000000;stroke-width:0.2;stroke-linejoin:round;stroke-miterlimit:4;stroke-dasharray:none"
       id="rect10549"
       width="46.786663"
       height="12.561125"
       x="0.10585015"
       y="0.070568033"
       rx="0.49999899"
       ry="0.49999899" />
    <g
       id="g1859"
       transform="rotate(2.8256233,110.91218,-1018.8007)"
       style="display:inline">
      <path
         style="fill:#5a361c;fill-opacity:0.51005;stroke:#000000;stroke-width:0.264583px;stroke-linecap:butt;stroke-linejoin:miter;stroke-opacity:1"
         d="m 56.591856,11.352065 c 4.21996,-0.273246 9.648954,-0.780893 11.187314,-1.328481 1.99523,-0.408838 5.608914,-0.5066747 8.37606,-1.1591787 2.35118,-0.37598 2.32416,-0.00601 8.2779,-0.456375 1.08956,0.08399 6.002864,-0.496597 7.154064,-0.28098 -1.08177,0.49663 -6.428485,0.7976428 -7.127005,0.8292038 -3.92817,0.634168 -6.822729,0.8653899 -8.811289,0.7697449 -4.08456,0.381035 -6.48374,0.64338 -9.95869,1.024374 -0.49375,0.0023 -4.883467,0.494738 -9.098354,0.601697 z"
         id="path10551"
         sodipodi:nodetypes="cccccccccc" />
      <path
         style="fill:url(#linearGradient10565);fill-opacity:1;stroke:#000000;stroke-width:0.264583px;stroke-linecap:butt;stroke-linejoin:miter;stroke-opacity:1"
         d="M 56.067914,11.327115 C 55.336957,10.391966 55.266187,9.4305078 58.116455,9.9300308 61.585207,9.0233345 63.537046,9.1082635 65.870835,9.712586 69.628932,8.3941018 73.384617,7.6709038 76.030142,7.9804581 79.36448,7.4180567 83.665713,5.8440397 85.297823,6.6650447 c 3.82086,-1.538925 7.446069,-0.4501968 6.612706,1.4335569 0.716964,1.7320277 -3.185667,5.1423594 -6.300512,2.9457914 -3.00291,1.18139 -6.041145,0.352304 -9.417688,0.04382 -2.948684,0.762924 -8.545375,1.385876 -10.298755,0.401403 -2.355219,0.682941 -6.395159,1.350668 -7.985624,0.698825 -1.356976,1.08645 -2.518055,0.185515 -1.840036,-0.861325 z"
         id="path10539"
         sodipodi:nodetypes="cccccccccccc" />
      <ellipse
         style="fill:#ffffff;fill-opacity:0.984925;stroke:#000000;stroke-width:0.402413;stroke-linejoin:round;stroke-miterlimit:4;stroke-dasharray:none"
         id="ellipse10541"
         cx="54.647156"
         cy="-31.851482"
         rx="0.72267342"
         ry="1.004295"
         transform="matrix(0.75374771,0.6571639,-0.52283571,0.85243347,0,0)" />
      <ellipse
         style="fill:#000000;fill-opacity:0.984925;stroke:#000000;stroke-width:0.5;stroke-linejoin:round;stroke-miterlimit:4;stroke-dasharray:none"
         id="ellipse10543"
         cx="57.830769"
         cy="9.2099504"
         rx="0.39919356"
         ry="0.44909272" />
      <ellipse
         style="fill:#ffffff;fill-opacity:0.984925;stroke:#000000;stroke-width:0.402413;stroke-linejoin:round;stroke-miterlimit:4;stroke-dasharray:none"
         id="ellipse10545"
         cx="56.27253"
         cy="-32.435516"
         rx="0.72267342"
         ry="1.004295"
         transform="matrix(0.75374771,0.6571639,-0.52283571,0.85243347,0,0)" />
      <ellipse
         style="fill:#000000;fill-opacity:0.984925;stroke:#000000;stroke-width:0.5;stroke-linejoin:round;stroke-miterlimit:4;stroke-dasharray:none"
         id="ellipse10547"
         cx="59.186611"
         cy="9.6804476"
         rx="0.39919356"
         ry="0.44909272" />
    </g>
    <rect
       style="display:inline;fill:none;fill-opacity:0.984925;stroke:#000000;stroke-width:0.2;stroke-linejoin:round;stroke-miterlimit:4;stroke-dasharray:none"
       id="rect10549-0"
       width="46.786999"
       height="12.561125"
       x="0.10585015"
       y="37.753944"
       rx="0.49999899"
       ry="0.49999899" />
    <ellipse
       style="display:inline;fill:#ffffff;fill-opacity:0.984925;stroke:#000000;stroke-width:0.402413;stroke-linejoin:round;stroke-miterlimit:4;stroke-dasharray:none"
       id="ellipse10541-1"
       cx="30.337866"
       cy="26.148424"
       rx="0.72267342"
       ry="1.004295"
       transform="matrix(0.72043545,0.69352199,-0.56422198,0.82562313,0,0)" />
    <path
       style="display:inline;fill:#5a361c;fill-opacity:0.51005;stroke:#000000;stroke-width:0.264583px;stroke-linecap:butt;stroke-linejoin:miter;stroke-opacity:1"
       d="m 5.875035,45.105175 c 4.2283,-0.06489 9.675718,-0.304284 11.239202,-0.775371 2.019234,-0.376815 5.209924,-1.007258 7.964327,-1.080058 2.366856,-0.259618 2.780323,0.443769 8.749026,0.28745 1.084095,0.137599 6.020046,-0.200074 7.159217,0.07203 -1.104936,0.442699 -6.45999,0.479771 -7.159216,0.476859 -3.954657,0.439753 -6.574823,0.457434 -8.73267,0.616717 -4.098378,0.179217 -6.613425,0.0407 -10.102932,0.249928 -0.493263,-0.02204 -4.901919,0.253399 -9.116954,0.152449 z"
       id="path10551-1"
       sodipodi:nodetypes="cccccccccc" />
    <ellipse
       style="display:inline;fill:#000000;fill-opacity:0.984925;stroke:#000000;stroke-width:0.5;stroke-linejoin:round;stroke-miterlimit:4;stroke-dasharray:none"
       id="ellipse10543-0"
       cx="9.1832733"
       cy="42.675819"
       rx="0.39919356"
       ry="0.44909272"
       transform="rotate(2.8256233)" />
    <path
       style="display:inline;fill:url(#linearGradient10487);fill-opacity:1;stroke:#000000;stroke-width:0.264583px;stroke-linecap:butt;stroke-linejoin:miter;stroke-opacity:1"
       d="m 5.35296,45.054427 c -0.683968,-0.970045 -0.707256,-2.63941 2.114922,-1.999987 2.697699,-1.934254 4.350675,-2.14592 6.982234,-1.45193 2.38044,-1.180051 8.083921,0.136472 11.211431,0.850815 2.850886,-0.895909 8.785846,-0.635418 10.375499,0.265046 3.892078,-1.348699 5.738118,-0.790164 5.274106,0.878382 0.964958,1.421164 -3.074931,3.357645 -5.266172,1.11605 -0.622898,1.596465 -6.89725,1.738407 -10.446985,0.667996 -2.901199,1.050683 -8.246488,1.69837 -11.49608,0.953002 C 11.686966,47.029142 8.881117,46.911383 7.324719,46.181929 5.35129,47.588288 4.62416,46.06657 5.35296,45.054429 Z"
       id="path10539-6"
       sodipodi:nodetypes="cccccccccccc" />
    <ellipse
       style="display:inline;fill:#ffffff;fill-opacity:0.984925;stroke:#000000;stroke-width:0.402413;stroke-linejoin:round;stroke-miterlimit:4;stroke-dasharray:none"
       id="ellipse10545-1"
       cx="31.75617"
       cy="25.002947"
       rx="0.72267342"
       ry="1.004295"
       transform="matrix(0.72043545,0.69352199,-0.56422198,0.82562313,0,0)" />
    <ellipse
       style="display:inline;fill:#000000;fill-opacity:0.984925;stroke:#000000;stroke-width:0.5;stroke-linejoin:round;stroke-miterlimit:4;stroke-dasharray:none"
       id="ellipse10547-3"
       cx="10.676582"
       cy="42.531654"
       rx="0.39919356"
       ry="0.44909272"
       transform="rotate(2.8256233)" />
    <rect
       style="display:inline;fill:none;fill-opacity:0.984925;stroke:#000000;stroke-width:0.2;stroke-linejoin:round;stroke-miterlimit:4;stroke-dasharray:none"
       id="rect12584"
       width="46.786663"
       height="12.561125"
       x="0.10585015"
       y="25.192818"
       rx="0.49999899"
       ry="0.49999899" />
    <path
       style="display:inline;fill:#5a361c;fill-opacity:0.51005;stroke:#000000;stroke-width:0.264583px;stroke-linecap:butt;stroke-linejoin:miter;stroke-opacity:1"
       d="m 6.5061837,31.840529 c 4.2264323,-0.141413 11.1855583,0.510776 12.7402583,0.01147 2.11287,-0.522791 3.191445,-0.820142 4.728286,-1.09733 2.538189,0.05042 6.533985,0.754904 12.49888,0.490571 1.086408,0.117953 4.896787,-0.0026 6.040697,0.248877 -1.096742,0.462627 -2.713842,0.219185 -3.413007,0.228931 -3.946048,0.511266 -12.888359,0.02307 -14.802397,0.571092 -4.094462,0.253376 -3.677936,-0.05326 -7.163083,0.2191 -0.493592,-0.01311 -6.226414,-0.242847 -10.6296343,-0.67271 z"
       id="path12572"
       sodipodi:nodetypes="cccccccccc" />
    <ellipse
       style="display:inline;fill:#ffffff;fill-opacity:0.984925;stroke:#000000;stroke-width:0.402413;stroke-linejoin:round;stroke-miterlimit:4;stroke-dasharray:none"
       id="ellipse12576"
       cx="23.354801"
       cy="16.523167"
       rx="0.72267342"
       ry="1.004295"
       transform="matrix(0.73287127,0.68036733,-0.54918443,0.83570118,0,0)" />
    <ellipse
       style="display:inline;fill:#000000;fill-opacity:0.984925;stroke:#000000;stroke-width:0.5;stroke-linejoin:round;stroke-miterlimit:4;stroke-dasharray:none"
       id="ellipse12578"
       cx="8.7936134"
       cy="29.524055"
       rx="0.39919356"
       ry="0.44909272"
       transform="rotate(1.7884215)" />
    <path
       style="display:inline;fill:url(#linearGradient12586);fill-opacity:1;stroke:#000000;stroke-width:0.264583px;stroke-linecap:butt;stroke-linejoin:miter;stroke-opacity:1"
       d="m 6.5061837,31.840525 c -0.701419,-0.957505 -0.3924944,-1.885391 2.4407879,-1.297158 3.2628104,-0.92706 6.7020254,-0.838795 9.9136174,-0.06391 3.701453,-1.926091 7.804685,-1.988163 10.958383,-0.433049 3.606566,-0.998743 5.698041,-0.650816 7.428482,-0.103619 3.592582,-0.121552 5.533683,0.219587 5.266851,1.551326 0.257179,1.298124 -3.074728,1.571679 -5.331136,1.091637 -2.140772,0.684344 -4.202175,1.053986 -7.39153,0.106778 -3.861969,1.689844 -8.350394,1.690146 -10.911929,0.715644 -2.909819,0.993384 -8.802759,0.754188 -10.372101,0.05306 -1.9476473,1.441852 -2.7117853,-0.595533 -2.0014253,-1.620703 z"
       id="path12574"
       sodipodi:nodetypes="cccccccccccc" />
    <ellipse
       style="display:inline;fill:#ffffff;fill-opacity:0.984925;stroke:#000000;stroke-width:0.402413;stroke-linejoin:round;stroke-miterlimit:4;stroke-dasharray:none"
       id="ellipse12949"
       cx="24.748039"
       cy="15.716106"
       rx="0.72267342"
       ry="1.004295"
       transform="matrix(0.73287127,0.68036733,-0.54918443,0.83570118,0,0)" />
    <ellipse
       style="display:inline;fill:#000000;fill-opacity:0.984925;stroke:#000000;stroke-width:0.5;stroke-linejoin:round;stroke-miterlimit:4;stroke-dasharray:none"
       id="ellipse12951"
       cx="10.265721"
       cy="29.751678"
       rx="0.39919356"
       ry="0.44909272"
       transform="rotate(1.7884215)" />
    <ellipse
       style="display:inline;fill:#ffffff;fill-opacity:0.984925;stroke:#000000;stroke-width:0.402413;stroke-linejoin:round;stroke-miterlimit:4;stroke-dasharray:none"
       id="ellipse4775"
       cx="15.490762"
       cy="7.5589299"
       rx="0.72267342"
       ry="1.004295"
       transform="matrix(0.71985266,0.69412689,-0.56491528,0.82514891,0,0)" />
    <ellipse
       style="display:inline;fill:#000000;fill-opacity:0.984925;stroke:#000000;stroke-width:0.5;stroke-linejoin:round;stroke-miterlimit:4;stroke-dasharray:none"
       id="path4603"
       cx="7.7115641"
       cy="17.072538"
       rx="0.39919356"
       ry="0.44909272"
       transform="rotate(2.87375)" />
    <rect
       style="display:inline;fill:none;fill-opacity:0.984925;stroke:#000000;stroke-width:0.2;stroke-linejoin:round;stroke-miterlimit:4;stroke-dasharray:none"
       id="rect5123"
       width="46.786663"
       height="12.561125"
       x="0.10585015"
       y="12.631693"
       rx="0.49999899"
       ry="0.49999899" />
    <ellipse
       style="display:inline;fill:#ffffff;fill-opacity:0.984925;stroke:#000000;stroke-width:0.402413;stroke-linejoin:round;stroke-miterlimit:4;stroke-dasharray:none"
       id="ellipse10527"
       cx="15.490762"
       cy="7.5589299"
       rx="0.72267342"
       ry="1.004295"
       transform="matrix(0.71985266,0.69412689,-0.56491528,0.82514891,0,0)" />
    <ellipse
       style="display:inline;fill:#000000;fill-opacity:0.984925;stroke:#000000;stroke-width:0.5;stroke-linejoin:round;stroke-miterlimit:4;stroke-dasharray:none"
       id="ellipse10529"
       cx="7.7115641"
       cy="17.072538"
       rx="0.39919356"
       ry="0.44909272"
       transform="rotate(2.87375)" />
    <path
       style="display:inline;fill:#5a361c;fill-opacity:0.51005;stroke:#000000;stroke-width:0.264583px;stroke-linecap:butt;stroke-linejoin:miter;stroke-opacity:1"
       d="m 4.8240855,19.310318 c 4.210711,0.573779 10.1449855,0.231269 12.2910575,-0.185577 2.013217,-0.308292 4.84219,-0.590782 7.37108,-0.989492 2.614062,-0.142957 3.541722,1.062347 9.510554,0.911044 1.083975,0.13851 6.564902,-0.245541 7.703847,0.02752 -1.105312,0.441771 -5.618031,0.221988 -6.317256,0.218489 -3.955025,0.43643 -8.10146,-0.187773 -10.082728,-0.382995 -4.098527,0.175775 -6.818591,0.630281 -10.308277,0.836577 -0.493248,-0.02246 -6.1121055,0.603952 -10.1682775,-0.435566 z"
       id="path6767"
       sodipodi:nodetypes="ccccccccc" />
    <path
       style="display:inline;fill:url(#linearGradient14478);fill-opacity:1;stroke:#000000;stroke-width:0.264583px;stroke-linecap:butt;stroke-linejoin:miter;stroke-opacity:1"
       d="m 4.8240855,19.310318 c -0.683153,-0.970621 -0.705483,-2.110838 2.116157,-1.469044 3.1484145,-0.909055 4.5537975,-0.962844 7.1090515,-0.416531 4.744157,-1.426061 10.734601,-1.330092 14.581998,-0.888195 4.029952,-2.053972 6.627666,-0.522551 8.216558,0.379247 3.434513,-0.56918 5.367358,1.033286 5.216192,2.132101 0.09745,1.449483 -3.202121,2.290467 -5.179771,0.999701 -1.894467,1.348953 -4.542535,1.965249 -8.039078,0.394658 -4.043723,1.266704 -11.538014,1.403062 -14.761759,0.456669 -2.241579,0.544557 -5.7331975,0.800479 -7.2889815,0.06971 -1.97461,1.404702 -2.700017,-0.646791 -1.970367,-1.658321 z"
       id="path10525"
       sodipodi:nodetypes="cccccccccccc" />
    <ellipse
       style="display:inline;fill:#ffffff;fill-opacity:0.984925;stroke:#000000;stroke-width:0.402413;stroke-linejoin:round;stroke-miterlimit:4;stroke-dasharray:none"
       id="ellipse12941"
       cx="16.844301"
       cy="6.6448064"
       rx="0.72267342"
       ry="1.004295"
       transform="matrix(0.71985266,0.69412689,-0.56491528,0.82514891,0,0)" />
    <ellipse
       style="display:inline;fill:#000000;fill-opacity:0.984925;stroke:#000000;stroke-width:0.5;stroke-linejoin:round;stroke-miterlimit:4;stroke-dasharray:none"
       id="ellipse12943"
       cx="9.2097292"
       cy="17.182808"
       rx="0.39919356"
       ry="0.44909272"
       transform="rotate(2.87375)" />
    <ellipse
       style="display:inline;fill:#ffffff;fill-opacity:0.984925;stroke:#000000;stroke-width:0.402413;stroke-linejoin:round;stroke-miterlimit:4;stroke-dasharray:none"
       id="ellipse12945"
       cx="16.844301"
       cy="6.6448064"
       rx="0.72267342"
       ry="1.004295"
       transform="matrix(0.71985266,0.69412689,-0.56491528,0.82514891,0,0)" />
    <ellipse
       style="display:inline;fill:#000000;fill-opacity:0.984925;stroke:#000000;stroke-width:0.5;stroke-linejoin:round;stroke-miterlimit:4;stroke-dasharray:none"
       id="ellipse12947"
       cx="9.2097292"
       cy="17.182808"
       rx="0.39919356"
       ry="0.44909272"
       transform="rotate(2.87375)" />
    <path
       id="path1123"
       style="fill:url(#linearGradient21570);fill-opacity:1;stroke:#8b5c32;stroke-width:0.2;stroke-linecap:butt;stroke-linejoin:miter;stroke-miterlimit:4;stroke-dasharray:none;stroke-opacity:1"
       d="M 20.987582,67.890387 C 14.294732,67.853533 7.7763427,63.528344 1.8073586,68.191631 l 0.4743897,0.0052 c -0.26421,0.01408 -0.4743897,0.2267 -0.4743897,0.494543 v 31.405316 c 0,0.277 0.2232284,0.50023 0.5002279,0.50023 H 168.35895 c 0.277,0 0.49971,-0.22323 0.49971,-0.50023 V 68.691344 c 0,-0.277 -0.22271,-0.499713 -0.49971,-0.499713 -11.10265,1.572916 -23.38728,-1.303467 -32.43368,0 -16.04179,2.31141 -27.34296,-1.751439 -35.76929,-2.49496 -6.967896,-0.586915 -16.081249,2.239518 -25.104528,-0.11312 -7.557076,-1.970358 -16.90702,-1.177737 -29.724029,-1.473325 -5.342237,-0.123203 -19.134291,3.808823 -24.339841,3.780161 z"
       sodipodi:nodetypes="sccsssssscscsss" />
    <rect
       style="display:inline;fill:none;fill-opacity:0.984925;stroke:#000000;stroke-width:0.2;stroke-linejoin:round;stroke-miterlimit:4;stroke-dasharray:none"
       id="rect28229"
       width="46.786663"
       height="12.561125"
       x="-93.679512"
       y="0.070568033"
       rx="0.49999899"
       ry="0.49999899"
       transform="scale(-1,1)" />
    <g
       id="g28243"
       transform="matrix(-0.99878419,0.04929644,0.04929644,0.99878419,143.87376,-6.7062425)"
       style="display:inline">
      <path
         style="fill:#5a361c;fill-opacity:0.51005;stroke:#000000;stroke-width:0.264583px;stroke-linecap:butt;stroke-linejoin:miter;stroke-opacity:1"
         d="m 56.591856,11.352065 c 4.21996,-0.273246 9.648954,-0.780893 11.187314,-1.328481 1.99523,-0.408838 5.608914,-0.5066747 8.37606,-1.1591787 2.35118,-0.37598 2.32416,-0.00601 8.2779,-0.456375 1.08956,0.08399 6.002864,-0.496597 7.154064,-0.28098 -1.08177,0.49663 -6.428485,0.7976428 -7.127005,0.8292038 -3.92817,0.634168 -6.822729,0.8653899 -8.811289,0.7697449 -4.08456,0.381035 -6.48374,0.64338 -9.95869,1.024374 -0.49375,0.0023 -4.883467,0.494738 -9.098354,0.601697 z"
         id="path28231"
         sodipodi:nodetypes="cccccccccc" />
      <path
         style="fill:url(#linearGradient28301);fill-opacity:1;stroke:#000000;stroke-width:0.264583px;stroke-linecap:butt;stroke-linejoin:miter;stroke-opacity:1"
         d="M 56.067914,11.327115 C 55.336957,10.391966 55.266187,9.4305078 58.116455,9.9300308 61.585207,9.0233345 63.537046,9.1082635 65.870835,9.712586 69.628932,8.3941018 73.384617,7.6709038 76.030142,7.9804581 79.36448,7.4180567 83.665713,5.8440397 85.297823,6.6650447 c 3.82086,-1.538925 7.446069,-0.4501968 6.612706,1.4335569 0.716964,1.7320277 -3.185667,5.1423594 -6.300512,2.9457914 -3.00291,1.18139 -6.041145,0.352304 -9.417688,0.04382 -2.948684,0.762924 -8.545375,1.385876 -10.298755,0.401403 -2.355219,0.682941 -6.395159,1.350668 -7.985624,0.698825 -1.356976,1.08645 -2.518055,0.185515 -1.840036,-0.861326 z"
         id="path28233"
         sodipodi:nodetypes="cccccccccccc" />
      <ellipse
         style="fill:#ffffff;fill-opacity:0.984925;stroke:#000000;stroke-width:0.402413;stroke-linejoin:round;stroke-miterlimit:4;stroke-dasharray:none"
         id="ellipse28235"
         cx="54.647156"
         cy="-31.851482"
         rx="0.72267342"
         ry="1.004295"
         transform="matrix(0.75374771,0.6571639,-0.52283571,0.85243347,0,0)" />
      <ellipse
         style="fill:#000000;fill-opacity:0.984925;stroke:#000000;stroke-width:0.5;stroke-linejoin:round;stroke-miterlimit:4;stroke-dasharray:none"
         id="ellipse28237"
         cx="57.830769"
         cy="9.2099504"
         rx="0.39919356"
         ry="0.44909272" />
      <ellipse
         style="fill:#ffffff;fill-opacity:0.984925;stroke:#000000;stroke-width:0.402413;stroke-linejoin:round;stroke-miterlimit:4;stroke-dasharray:none"
         id="ellipse28239"
         cx="56.27253"
         cy="-32.435516"
         rx="0.72267342"
         ry="1.004295"
         transform="matrix(0.75374771,0.6571639,-0.52283571,0.85243347,0,0)" />
      <ellipse
         style="fill:#000000;fill-opacity:0.984925;stroke:#000000;stroke-width:0.5;stroke-linejoin:round;stroke-miterlimit:4;stroke-dasharray:none"
         id="ellipse28241"
         cx="59.186611"
         cy="9.6804476"
         rx="0.39919356"
         ry="0.44909272" />
    </g>
    <rect
       style="display:inline;fill:none;fill-opacity:0.984925;stroke:#000000;stroke-width:0.2;stroke-linejoin:round;stroke-miterlimit:4;stroke-dasharray:none"
       id="rect28245"
       width="46.786999"
       height="12.561125"
       x="-93.679512"
       y="37.753944"
       rx="0.49999899"
       ry="0.49999899"
       transform="scale(-1,1)" />
    <ellipse
       style="display:inline;fill:#ffffff;fill-opacity:0.984925;stroke:#000000;stroke-width:0.402413;stroke-linejoin:round;stroke-miterlimit:4;stroke-dasharray:none"
       id="ellipse28247"
       cx="-48.184288"
       cy="92.106895"
       rx="0.72267342"
       ry="1.004295"
       transform="matrix(-0.72043545,0.69352199,0.56422198,0.82562313,0,0)" />
    <path
       style="display:inline;fill:#5a361c;fill-opacity:0.51005;stroke:#000000;stroke-width:0.264583px;stroke-linecap:butt;stroke-linejoin:miter;stroke-opacity:1"
       d="m 87.910327,45.105175 c -4.2283,-0.06489 -9.675718,-0.304284 -11.239202,-0.775371 -2.019234,-0.376815 -5.209924,-1.007258 -7.964327,-1.080058 -2.366856,-0.259618 -2.780323,0.443769 -8.749026,0.28745 -1.084095,0.137599 -6.020046,-0.200074 -7.159217,0.07203 1.104936,0.442699 6.45999,0.479771 7.159216,0.476859 3.954657,0.439753 6.574823,0.457434 8.73267,0.616717 4.098378,0.179217 6.613425,0.0407 10.102932,0.249928 0.493263,-0.02204 4.901919,0.253399 9.116954,0.152449 z"
       id="path28249"
       sodipodi:nodetypes="cccccccccc" />
    <ellipse
       style="display:inline;fill:#000000;fill-opacity:0.984925;stroke:#000000;stroke-width:0.5;stroke-linejoin:round;stroke-miterlimit:4;stroke-dasharray:none"
       id="ellipse28251"
       cx="-84.488068"
       cy="47.299103"
       rx="0.39919356"
       ry="0.44909272"
       transform="matrix(-0.99878419,0.04929644,0.04929644,0.99878419,0,0)" />
    <path
       style="display:inline;fill:url(#linearGradient28299);fill-opacity:1;stroke:#000000;stroke-width:0.264583px;stroke-linecap:butt;stroke-linejoin:miter;stroke-opacity:1"
       d="m 88.432402,45.054427 c 0.683968,-0.970045 0.707256,-2.63941 -2.114922,-1.999987 -2.697699,-1.934254 -4.350675,-2.14592 -6.982234,-1.45193 -2.38044,-1.180051 -8.083921,0.136472 -11.211431,0.850815 -2.850886,-0.895909 -8.785846,-0.635418 -10.375499,0.265046 -3.892078,-1.348699 -5.738118,-0.790164 -5.274106,0.878382 -0.964958,1.421164 3.074931,3.357645 5.266172,1.11605 0.622898,1.596465 6.89725,1.738407 10.446985,0.667996 2.901199,1.050683 8.246488,1.69837 11.49608,0.953002 2.414949,0.695341 5.220798,0.577582 6.777196,-0.151872 1.973429,1.406359 2.700559,-0.115359 1.971759,-1.1275 z"
       id="path28253"
       sodipodi:nodetypes="cccccccccccc" />
    <ellipse
       style="display:inline;fill:#ffffff;fill-opacity:0.984925;stroke:#000000;stroke-width:0.402413;stroke-linejoin:round;stroke-miterlimit:4;stroke-dasharray:none"
       id="ellipse28255"
       cx="-46.765984"
       cy="90.961418"
       rx="0.72267342"
       ry="1.004295"
       transform="matrix(-0.72043545,0.69352199,0.56422198,0.82562313,0,0)" />
    <ellipse
       style="display:inline;fill:#000000;fill-opacity:0.984925;stroke:#000000;stroke-width:0.5;stroke-linejoin:round;stroke-miterlimit:4;stroke-dasharray:none"
       id="ellipse28257"
       cx="-82.994759"
       cy="47.154938"
       rx="0.39919356"
       ry="0.44909272"
       transform="matrix(-0.99878419,0.04929644,0.04929644,0.99878419,0,0)" />
    <rect
       style="display:inline;fill:none;fill-opacity:0.984925;stroke:#000000;stroke-width:0.2;stroke-linejoin:round;stroke-miterlimit:4;stroke-dasharray:none"
       id="rect28259"
       width="46.786663"
       height="12.561125"
       x="-93.679512"
       y="25.192818"
       rx="0.49999899"
       ry="0.49999899"
       transform="scale(-1,1)" />
    <path
       style="display:inline;fill:#5a361c;fill-opacity:0.51005;stroke:#000000;stroke-width:0.264583px;stroke-linecap:butt;stroke-linejoin:miter;stroke-opacity:1"
       d="m 87.279178,31.840529 c -4.226432,-0.141413 -11.185558,0.510776 -12.740258,0.01147 -2.11287,-0.522791 -3.191445,-0.820142 -4.728286,-1.09733 -2.538189,0.05042 -6.533985,0.754904 -12.49888,0.490571 -1.086408,0.117953 -4.896787,-0.0026 -6.040697,0.248877 1.096742,0.462627 2.713842,0.219185 3.413007,0.228931 3.946048,0.511266 12.888359,0.02307 14.802397,0.571092 4.094462,0.253376 3.677936,-0.05326 7.163083,0.2191 0.493592,-0.01311 6.226414,-0.242847 10.629634,-0.672711 z"
       id="path28261"
       sodipodi:nodetypes="cccccccccc" />
    <ellipse
       style="display:inline;fill:#ffffff;fill-opacity:0.984925;stroke:#000000;stroke-width:0.402413;stroke-linejoin:round;stroke-miterlimit:4;stroke-dasharray:none"
       id="ellipse28263"
       cx="-56.125839"
       cy="81.230545"
       rx="0.72267342"
       ry="1.004295"
       transform="matrix(-0.73287127,0.68036733,0.54918443,0.83570118,0,0)" />
    <ellipse
       style="display:inline;fill:#000000;fill-opacity:0.984925;stroke:#000000;stroke-width:0.5;stroke-linejoin:round;stroke-miterlimit:4;stroke-dasharray:none"
       id="ellipse28265"
       cx="-84.94606"
       cy="32.450981"
       rx="0.39919356"
       ry="0.44909272"
       transform="matrix(-0.99951289,0.03120878,0.03120878,0.99951289,0,0)" />
    <path
       style="display:inline;fill:url(#linearGradient28297);fill-opacity:1;stroke:#000000;stroke-width:0.264583px;stroke-linecap:butt;stroke-linejoin:miter;stroke-opacity:1"
       d="m 87.279178,31.840525 c 0.701419,-0.957505 0.392495,-1.885391 -2.440788,-1.297158 -3.26281,-0.92706 -6.702025,-0.838795 -9.913617,-0.06391 -3.701453,-1.926091 -7.804685,-1.988163 -10.958383,-0.433049 -3.606566,-0.998743 -5.698041,-0.650816 -7.428482,-0.103619 -3.592582,-0.121552 -5.533683,0.219587 -5.266851,1.551326 -0.257179,1.298124 3.074728,1.571679 5.331136,1.091637 2.140772,0.684344 4.202175,1.053986 7.39153,0.106778 3.861969,1.689844 8.350394,1.690146 10.911929,0.715644 2.909819,0.993384 8.802759,0.754188 10.372101,0.05306 1.947647,1.441852 2.711785,-0.595533 2.001425,-1.620703 z"
       id="path28267"
       sodipodi:nodetypes="cccccccccccc" />
    <ellipse
       style="display:inline;fill:#ffffff;fill-opacity:0.984925;stroke:#000000;stroke-width:0.402413;stroke-linejoin:round;stroke-miterlimit:4;stroke-dasharray:none"
       id="ellipse28269"
       cx="-54.732601"
       cy="80.423485"
       rx="0.72267342"
       ry="1.004295"
       transform="matrix(-0.73287127,0.68036733,0.54918443,0.83570118,0,0)" />
    <ellipse
       style="display:inline;fill:#000000;fill-opacity:0.984925;stroke:#000000;stroke-width:0.5;stroke-linejoin:round;stroke-miterlimit:4;stroke-dasharray:none"
       id="ellipse28271"
       cx="-83.473953"
       cy="32.678604"
       rx="0.39919356"
       ry="0.44909272"
       transform="matrix(-0.99951289,0.03120878,0.03120878,0.99951289,0,0)" />
    <ellipse
       style="display:inline;fill:#ffffff;fill-opacity:0.984925;stroke:#000000;stroke-width:0.402413;stroke-linejoin:round;stroke-miterlimit:4;stroke-dasharray:none"
       id="ellipse28273"
       cx="-62.98629"
       cy="73.574928"
       rx="0.72267342"
       ry="1.004295"
       transform="matrix(-0.71985266,0.69412689,0.56491528,0.82514891,0,0)" />
    <ellipse
       style="display:inline;fill:#000000;fill-opacity:0.984925;stroke:#000000;stroke-width:0.5;stroke-linejoin:round;stroke-miterlimit:4;stroke-dasharray:none"
       id="ellipse28275"
       cx="-85.955856"
       cy="21.774502"
       rx="0.39919356"
       ry="0.44909272"
       transform="matrix(-0.99874243,0.05013537,0.05013537,0.99874243,0,0)" />
    <rect
       style="display:inline;fill:none;fill-opacity:0.984925;stroke:#000000;stroke-width:0.2;stroke-linejoin:round;stroke-miterlimit:4;stroke-dasharray:none"
       id="rect28277"
       width="46.786663"
       height="12.561125"
       x="-93.679512"
       y="12.631693"
       rx="0.49999899"
       ry="0.49999899"
       transform="scale(-1,1)" />
    <ellipse
       style="display:inline;fill:#ffffff;fill-opacity:0.984925;stroke:#000000;stroke-width:0.402413;stroke-linejoin:round;stroke-miterlimit:4;stroke-dasharray:none"
       id="ellipse28279"
       cx="-62.98629"
       cy="73.574928"
       rx="0.72267342"
       ry="1.004295"
       transform="matrix(-0.71985266,0.69412689,0.56491528,0.82514891,0,0)" />
    <ellipse
       style="display:inline;fill:#000000;fill-opacity:0.984925;stroke:#000000;stroke-width:0.5;stroke-linejoin:round;stroke-miterlimit:4;stroke-dasharray:none"
       id="ellipse28281"
       cx="-85.955856"
       cy="21.774502"
       rx="0.39919356"
       ry="0.44909272"
       transform="matrix(-0.99874243,0.05013537,0.05013537,0.99874243,0,0)" />
    <path
       style="display:inline;fill:#5a361c;fill-opacity:0.51005;stroke:#000000;stroke-width:0.264583px;stroke-linecap:butt;stroke-linejoin:miter;stroke-opacity:1"
       d="m 88.961276,19.310318 c -4.210711,0.573779 -10.144985,0.231269 -12.291057,-0.185577 -2.013217,-0.308292 -4.84219,-0.590782 -7.37108,-0.989492 -2.614062,-0.142957 -3.541722,1.062347 -9.510554,0.911044 -1.083975,0.13851 -6.564902,-0.245541 -7.703847,0.02752 1.105312,0.441771 5.618031,0.221988 6.317256,0.218489 3.955025,0.43643 8.10146,-0.187773 10.082728,-0.382995 4.098527,0.175775 6.818591,0.630281 10.308277,0.836577 0.493248,-0.02246 6.112105,0.603952 10.168277,-0.435566 z"
       id="path28283"
       sodipodi:nodetypes="ccccccccc" />
    <path
       style="display:inline;fill:url(#linearGradient28295);fill-opacity:1;stroke:#000000;stroke-width:0.264583px;stroke-linecap:butt;stroke-linejoin:miter;stroke-opacity:1"
       d="M 88.961276,19.310318 C 89.644429,18.339697 89.666759,17.19948 86.845119,17.841274 83.696705,16.932219 82.291322,16.87843 79.736068,17.424743 74.991911,15.998682 69.001467,16.094651 65.15407,16.536548 c -4.029952,-2.053972 -6.627666,-0.522551 -8.216558,0.379247 -3.434513,-0.56918 -5.367358,1.033286 -5.216192,2.132101 -0.09745,1.449483 3.202121,2.290467 5.179771,0.999701 1.894467,1.348953 4.542535,1.965249 8.039078,0.394658 4.043723,1.266704 11.538014,1.403062 14.761759,0.456669 2.241579,0.544557 5.733197,0.800479 7.288981,0.06971 1.97461,1.404702 2.700017,-0.646791 1.970367,-1.658321 z"
       id="path28285"
       sodipodi:nodetypes="cccccccccccc" />
    <ellipse
       style="display:inline;fill:#ffffff;fill-opacity:0.984925;stroke:#000000;stroke-width:0.402413;stroke-linejoin:round;stroke-miterlimit:4;stroke-dasharray:none"
       id="ellipse28287"
       cx="-61.632751"
       cy="72.660805"
       rx="0.72267342"
       ry="1.004295"
       transform="matrix(-0.71985266,0.69412689,0.56491528,0.82514891,0,0)" />
    <ellipse
       style="display:inline;fill:#000000;fill-opacity:0.984925;stroke:#000000;stroke-width:0.5;stroke-linejoin:round;stroke-miterlimit:4;stroke-dasharray:none"
       id="ellipse28289"
       cx="-84.457695"
       cy="21.884771"
       rx="0.39919356"
       ry="0.44909272"
       transform="matrix(-0.99874243,0.05013537,0.05013537,0.99874243,0,0)" />
    <ellipse
       style="display:inline;fill:#ffffff;fill-opacity:0.984925;stroke:#000000;stroke-width:0.402413;stroke-linejoin:round;stroke-miterlimit:4;stroke-dasharray:none"
       id="ellipse28291"
       cx="-61.632751"
       cy="72.660805"
       rx="0.72267342"
       ry="1.004295"
       transform="matrix(-0.71985266,0.69412689,0.56491528,0.82514891,0,0)" />
    <ellipse
       style="display:inline;fill:#000000;fill-opacity:0.984925;stroke:#000000;stroke-width:0.5;stroke-linejoin:round;stroke-miterlimit:4;stroke-dasharray:none"
       id="ellipse28293"
       cx="-84.457695"
       cy="21.884771"
       rx="0.39919356"
       ry="0.44909272"
       transform="matrix(-0.99874243,0.05013537,0.05013537,0.99874243,0,0)" />
    <path
       style="fill:url(#radialGradient2125);fill-opacity:1;stroke:#000000;stroke-width:0.264583px;stroke-linecap:butt;stroke-linejoin:miter;stroke-opacity:1"
       d="m 99.687066,1.4576859 c -0.51194,-0.276559 -1.129814,0.05609 -1.431324,0.493537 -0.53617,0.74303 -0.94632,1.56836 -1.3259,2.399153 -0.19698,0.560856 -0.15663,1.3115 0.37654,1.674957 0.62626,0.417338 1.40397,0.441148 2.103164,0.663523 0.842324,0.149561 1.709744,0.06372 2.536424,-0.135234 0.60119,-0.251709 0.81048,-0.95733 0.83508,-1.555825 0.0164,-0.513458 0.0968,-1.043133 -0.0382,-1.546014 -0.26284,-0.63881 -1.03377,-0.961067 -1.68913,-0.813749 -0.58754,-0.0054 -0.97335,-0.527756 -1.247934,-0.983685 -0.0401,-0.06524 -0.0795,-0.131068 -0.11876,-0.196663 z"
       id="path1004"
       sodipodi:nodetypes="ccccccccc" />
    <path
       style="fill:url(#radialGradient3224);fill-opacity:1;stroke:#000000;stroke-width:0.264583px;stroke-linecap:butt;stroke-linejoin:miter;stroke-opacity:1"
       d="m 100.22436,10.09124 c -1.147429,-0.4544635 -2.923471,0.03769 -3.307343,1.280426 -0.0908,1.250086 1.097792,1.977444 1.996279,2.584905 0.716929,0.747452 1.310114,1.727944 2.526924,1.43978 1.04409,0.125719 2.11792,-0.526288 1.93159,-1.692366 0.0218,-1.204502 -0.97647,-2.132257 -1.82185,-2.864347 -0.4077,-0.300411 -0.86507,-0.538844 -1.3256,-0.748398 z"
       id="path2810"
       sodipodi:nodetypes="scsssssssssscssssssscscs" />
  </g>
</svg>
